# xmcd
#
# Track frame offsets:
# 150
# 10367
# 21012
# 36749
# 48518
# 56400
# 66900
# 76347
# 87522
# 99587
# 109601
# 122395
# 133030
# 146526
# 157026
# 169469
# 180779
# 190982
# 202886
# 214763
#
# Disc length: 3002 seconds
#
#
# Revision: 0
# Processed by: cddbd v1.5.2PL0 Copyright (c) Steve Scherf et al.
# Submitted via: FreeRIP 2.942 
#
DISCID=170bb814
DTITLE=Mangabinha - O sanfoneiro paradura
DYEAR=1900
DGENRE=Country
TTITLE0=quebra tapete
TTITLE1=parada dura
TTITLE2=nova replublica
TTITLE3=coroa enxuto
TTITLE4=deixa que eu chuto
TTITLE5=po de mico
TTITLE6=comigo ninguem
TTITLE7=largando fogo
TTITLE8=alegria na fazenda
TTITLE9=dobrando horizonte
TTITLE10=festival rampazzo
TTITLE11=trem bom
TTITLE12=dobrando esquina
TTITLE13=chora na rampa
TTITLE14=to que to
TTITLE15=mate o veio
TTITLE16=8 ou 80
TTITLE17=bao sem base
TTITLE18=puxa o fole tesouro
TTITLE19=forro em portugal
EXTD=
EXTT0=
EXTT1=
EXTT2=
EXTT3=
EXTT4=
EXTT5=
EXTT6=
EXTT7=
EXTT8=
EXTT9=
EXTT10=
EXTT11=
EXTT12=
EXTT13=
EXTT14=
EXTT15=
EXTT16=
EXTT17=
EXTT18=
EXTT19=
PLAYORDER=
